<?xml version="1.0" encoding="UTF-8" standalone="no"?>
<!-- Created with Inkscape (http://www.inkscape.org/) -->

<svg
   width="716.2168"
   height="716.21655"
   viewBox="0 0 189.49902 189.49896"
   version="1.1"
   id="svg1"
   xml:space="preserve"
   xmlns="http://www.w3.org/2000/svg"
   xmlns:svg="http://www.w3.org/2000/svg"><defs
     id="defs1" /><g
     id="layer1"
     transform="translate(-2477.139,-1022.4592)"><g
       id="g1577"><path
         style="fill:#eb0a45;fill-opacity:1;stroke:none;stroke-width:1.2473;stroke-linecap:round;stroke-linejoin:round;stroke-dasharray:none;stroke-opacity:1"
         id="path1559"
         d="m 2666.6378,1117.3433 a 94.749481,94.749481 0 0 1 -94.8503,94.6149 94.749481,94.749481 0 0 1 -94.6485,-94.8167 94.749481,94.749481 0 0 1 94.7831,-94.6822 94.749481,94.749481 0 0 1 94.7158,94.7494" /><g
         id="g1576"
         transform="matrix(0.84179672,0,0,0.84179672,284.70412,136.08244)"><g
           id="g1575"
           transform="translate(-154.12427,138.6873)"><path
             id="rect1567"
             style="fill:#621231;fill-opacity:1;stroke:none;stroke-width:0.985066;stroke-linecap:round;stroke-linejoin:round;stroke-dasharray:none;stroke-opacity:1"
             d="m 2805.3931,972.57474 c -1.0585,0 -1.9105,0.85199 -1.9105,1.91048 v 3.10782 20.44837 c 0,1.05849 0.852,1.91047 1.9105,1.91047 h 3.1073 c 1.0585,0 1.911,-0.85198 1.911,-1.91047 v -18.53789 h 18.5379 c 1.0585,0 1.9105,-0.85199 1.9105,-1.91048 v -3.10782 c 0,-1.05849 -0.852,-1.91048 -1.9105,-1.91048 h -20.4489 z" /><path
             id="path1568"
             style="fill:#621231;fill-opacity:1;stroke:none;stroke-width:0.985066;stroke-linecap:round;stroke-linejoin:round;stroke-dasharray:none;stroke-opacity:1"
             d="m 2936.9092,972.57474 c 1.0585,0 1.9105,0.85199 1.9105,1.91048 v 3.10782 20.44837 c 0,1.05849 -0.852,1.91047 -1.9105,1.91047 h -3.1073 c -1.0585,0 -1.911,-0.85198 -1.911,-1.91047 v -18.53789 h -18.5379 c -1.0585,0 -1.9105,-0.85199 -1.9105,-1.91048 v -3.10782 c 0,-1.05849 0.852,-1.91048 1.9105,-1.91048 h 20.4489 z" /><path
             id="path1569"
             style="fill:#621231;fill-opacity:1;stroke:none;stroke-width:0.985066;stroke-linecap:round;stroke-linejoin:round;stroke-dasharray:none;stroke-opacity:1"
             d="m 2805.3931,1081.0797 c -1.0585,0 -1.9105,-0.852 -1.9105,-1.9105 v -3.1078 -20.4484 c 0,-1.0585 0.852,-1.9105 1.9105,-1.9105 h 3.1073 c 1.0585,0 1.911,0.852 1.911,1.9105 v 18.5379 h 18.5379 c 1.0585,0 1.9105,0.852 1.9105,1.9105 v 3.1078 c 0,1.0585 -0.852,1.9105 -1.9105,1.9105 h -20.4489 z" /><path
             id="path1570"
             style="fill:#621231;fill-opacity:1;stroke:none;stroke-width:0.985066;stroke-linecap:round;stroke-linejoin:round;stroke-dasharray:none;stroke-opacity:1"
             d="m 2936.9092,1081.0797 c 1.0585,0 1.9105,-0.852 1.9105,-1.9105 v -3.1078 -20.4484 c 0,-1.0585 -0.852,-1.9105 -1.9105,-1.9105 h -3.1073 c -1.0585,0 -1.911,0.852 -1.911,1.9105 v 18.5379 h -18.5379 c -1.0585,0 -1.9105,0.852 -1.9105,1.9105 v 3.1078 c 0,1.0585 0.852,1.9105 1.9105,1.9105 h 20.4489 z" /><rect
             style="fill:#621231;fill-opacity:1;stroke:none;stroke-width:1.032;stroke-linecap:round;stroke-linejoin:round;stroke-dasharray:none;stroke-opacity:1"
             id="rect1570"
             width="7.1792197"
             height="68.952896"
             x="2823.6807"
             y="992.10858"
             ry="1.9106297" /><rect
             style="fill:#621231;fill-opacity:1;stroke:none;stroke-width:1.47339;stroke-linecap:round;stroke-linejoin:round;stroke-dasharray:none;stroke-opacity:1"
             id="rect1571"
             width="14.633588"
             height="68.952896"
             x="2836.0481"
             y="992.10858"
             ry="1.9106297" /><rect
             style="fill:#621231;fill-opacity:1;stroke:none;stroke-width:1.032;stroke-linecap:round;stroke-linejoin:round;stroke-dasharray:none;stroke-opacity:1"
             id="rect1572"
             width="7.1792197"
             height="68.952896"
             x="2858.1008"
             y="992.10858"
             ry="1.9106297" /><rect
             style="fill:#621231;fill-opacity:1;stroke:none;stroke-width:1.47339;stroke-linecap:round;stroke-linejoin:round;stroke-dasharray:none;stroke-opacity:1"
             id="rect1573"
             width="14.633588"
             height="68.952896"
             x="2870.4683"
             y="992.10858"
             ry="1.9106297" /><rect
             style="fill:#621231;fill-opacity:1;stroke:none;stroke-width:1.032;stroke-linecap:round;stroke-linejoin:round;stroke-dasharray:none;stroke-opacity:1"
             id="rect1574"
             width="7.1792197"
             height="68.952896"
             x="2891.7583"
             y="992.10858"
             ry="1.9106297" /><rect
             style="fill:#621231;fill-opacity:1;stroke:none;stroke-width:1.47339;stroke-linecap:round;stroke-linejoin:round;stroke-dasharray:none;stroke-opacity:1"
             id="rect1575"
             width="14.633588"
             height="68.952896"
             x="2904.1257"
             y="992.10858"
             ry="1.9106297" /></g></g></g></g></svg>
