<?xml version="1.0" encoding="UTF-8" standalone="no"?>
<!-- Created with Inkscape (http://www.inkscape.org/) -->

<svg
   width="266.85986"
   height="330.42969"
   viewBox="0 0 70.60667 87.426188"
   version="1.1"
   id="svg1"
   xml:space="preserve"
   xmlns="http://www.w3.org/2000/svg"
   xmlns:svg="http://www.w3.org/2000/svg"><defs
     id="defs1" /><g
     id="g878"
     transform="translate(-2198.29,-97.380603)"
     style="fill:#1a2033;fill-opacity:1"><path
       id="rect871"
       style="fill:#1a2033;fill-opacity:1;stroke:none;stroke-width:1.13242;stroke-linecap:round;stroke-linejoin:round;stroke-dasharray:none;stroke-opacity:1"
       d="m 2201.9586,124.36915 c -2.0322,0 -3.6685,1.63582 -3.6685,3.668 v 53.10115 c 0,0.88907 0.3132,1.70218 0.8356,2.33577 10e-5,1.1e-4 -1e-4,4.1e-4 0,5.2e-4 0.6718,0.81445 1.69,1.33222 2.8329,1.33222 h 63.2701 c 1.1429,0 2.1606,-0.51777 2.8323,-1.33222 10e-5,-1.1e-4 0,-4.1e-4 0,-5.2e-4 0.075,-0.0905 0.1451,-0.18461 0.2109,-0.28215 0.3947,-0.58526 0.6248,-1.29156 0.6248,-2.05362 v -53.10115 c 0,-2.03218 -1.6359,-3.668 -3.668,-3.668 h -14.149 c -2.0322,0 -3.668,1.63582 -3.668,3.668 0,2.03217 1.6358,3.66799 3.668,3.66799 h 10.4804 v 45.76516 h -55.9335 v -45.76516 h 10.4805 c 2.0322,0 3.6685,-1.63582 3.6685,-3.66799 0,-2.03218 -1.6363,-3.668 -3.6685,-3.668 z" /><path
       id="rect876"
       style="fill:#1a2033;fill-opacity:1;stroke:none;stroke-width:1.71277;stroke-linecap:round;stroke-linejoin:round;stroke-dasharray:none;stroke-opacity:1"
       d="m 97.380619,2233.5934 c 0,-2.0322 1.636336,-3.668 3.668511,-3.668 h 37.14967 l -4.17597,-4.176 c -0.71849,-0.7185 -1.07753,-1.6564 -1.07746,-2.5941 -7e-5,-0.9377 0.35897,-1.8752 1.07746,-2.5937 1.43698,-1.437 3.75081,-1.437 5.18779,0 l 10.43813,10.4381 c 0.35928,0.3593 0.62855,0.7736 0.80822,1.215 0.0449,0.1104 0.0841,0.2218 0.11782,0.3353 0.10111,0.3401 0.15141,0.6922 0.15141,1.0439 -7e-5,0.9376 -0.3591,1.8752 -1.07745,2.5936 l -10.43813,10.4382 c -1.43698,1.437 -3.75081,1.437 -5.18779,0 -1.43698,-1.437 -1.43698,-3.7508 0,-5.1878 l 4.17649,-4.176 h -37.15019 c -2.032175,0 -3.668511,-1.6363 -3.668511,-3.6685 z"
       transform="matrix(0,1,1,0,0,0)" /></g></svg>
